# xmcd CD database file
#
# Track frame offsets:
#	150
#	23408
#	54812
#	74973
#	93776
#	112418
#	140528
#	168407
#	187479
#	216649
#	233289
#	252150
#	277429
#	298526
#	317741
#
# Disc length: 4529 seconds
#
# Revision: 1
# Processed by: cddbd v1.5.2PL0 Copyright (c) Steve Scherf et al.
# Submitted via: CDex 1.51
#
DISCID=ee11af0f
DTITLE=Agata Christie - Die Schattenhand
DYEAR=2010
DGENRE=Hörbuch
TTITLE0=Die Schattenhand 01
TTITLE1=Die Schattenhand 02
TTITLE2=Die Schattenhand 03
TTITLE3=Die Schattenhand 04
TTITLE4=Die Schattenhand 05
TTITLE5=Die Schattenhand 06
TTITLE6=Die Schattenhand 07
TTITLE7=Die Schattenhand 08
TTITLE8=Die Schattenhand 09
TTITLE9=Die Schattenhand 10
TTITLE10=Die Schattenhand 11
TTITLE11=Die Schattenhand 12
TTITLE12=Die Schattenhand 13
TTITLE13=Die Schattenhand 14
TTITLE14=Die Schattenhand 15
EXTD=YEAR: 2010
EXTT0=
EXTT1=
EXTT2=
EXTT3=
EXTT4=
EXTT5=
EXTT6=
EXTT7=
EXTT8=
EXTT9=
EXTT10=
EXTT11=
EXTT12=
EXTT13=
EXTT14=
PLAYORDER=
